<svg xmlns="http://www.w3.org/2000/svg" version="1.1" viewBox="0 0 48 48"><metadata/><path fill="none" stroke="#39394c" stroke-dasharray="none" stroke-miterlimit="4" stroke-width="1.7" d="m24,10.5a12.5,11,0,1,1,-25,0,12.5,11,0,1,1,25,0z" transform="translate(3.5,2.5)"/><path fill="none" stroke="#39394c" stroke-dasharray="none" stroke-miterlimit="4" stroke-width="1.7" d="m24.5,10.5a13,11,0,1,1,-26,0,13,11,0,1,1,26,0z" transform="translate(20.893908,24.5)"/><path fill="none" stroke="#2b2827" stroke-dasharray="none" stroke-linecap="butt" stroke-linejoin="round" stroke-miterlimit="4" stroke-width="1.5" d="m30,10,10,0,1,0,0,9,3-1-4,4-4-4,3,1,0-7-9,0z"/><path fill="none" stroke="#252b2d" stroke-linecap="butt" stroke-linejoin="miter" stroke-width="1" d="M10,9,8,7m2,2-2,2m4-4-2,2,2,2"/><path fill="none" stroke="#252b2d" stroke-linecap="butt" stroke-linejoin="miter" stroke-width="1" d="M19,8,17,6m2,2-2,2m4-4-2,2,2,2"/><path fill="none" stroke="#252b2d" stroke-linecap="butt" stroke-linejoin="miter" stroke-width="1" d="m15,14-2-2m2,2-2,2m4-4-2,2,2,2"/><path fill="none" stroke="#252b2d" stroke-linecap="butt" stroke-linejoin="miter" stroke-width="1" d="M9,17,7,15m2,2-2,2m4-4-2,2,2,2"/><path fill="none" stroke="#252b2d" stroke-linecap="butt" stroke-linejoin="miter" stroke-width="1" d="m21,17-2-2m2,2-2,2m4-4-2,2,2,2"/><path fill="none" stroke="#252b2d" stroke-linecap="butt" stroke-linejoin="miter" stroke-width="1" d="m27,33-2-2m2,2-2,2m4-4-2,2,2,2"/><path fill="none" stroke="#252b2d" stroke-linecap="butt" stroke-linejoin="miter" stroke-width="1" d="m38,36-2-2m2,2-2,2m4-4-2,2,2,2"/><text style="writing-mode:lr-tb;letter-spacing:0;text-anchor:start;word-spacing:0;text-align:start" x="4" y="44" fill="#000" font-family="Sans" font-size="10" font-stretch="normal" font-style="normal" font-variant="normal" font-weight="bold" line-height="125%" xml:space="preserve"><tspan x="4" y="44">B</tspan></text></svg>