<svg xmlns="http://www.w3.org/2000/svg" xmlns:svg="http://www.w3.org/2000/svg" id="svg3061" width="16" height="16" version="1.1"><metadata id="metadata3066"/><g id="layer1"><g id="g3" transform="matrix(0.125,0,0,0.125,-5.4935679,-1.0864495)"><path id="path5" d="m 164.623,32.019 c -0.488,-0.488 -1.113,-0.733 -1.873,-0.733 h -25.176 l -5.703,-13.605 c -0.814,-2.01 -2.28,-3.721 -4.398,-5.133 -2.119,-1.412 -4.265,-2.118 -6.438,-2.118 H 94.964 c -2.172,0 -4.318,0.706 -6.436,2.118 -2.119,1.412 -3.585,3.123 -4.4,5.133 L 78.425,31.286 H 53.25 c -0.761,0 -1.385,0.245 -1.874,0.733 -0.488,0.489 -0.733,1.114 -0.733,1.874 v 5.215 c 0,0.76 0.244,1.385 0.733,1.873 0.489,0.489 1.114,0.733 1.874,0.733 h 7.821 v 77.562 c 0,4.509 1.276,8.352 3.829,11.528 2.553,3.179 5.622,4.767 9.207,4.767 h 67.786 c 3.586,0 6.654,-1.643 9.207,-4.928 2.553,-3.287 3.828,-7.184 3.828,-11.691 V 41.714 h 7.822 c 0.76,0 1.385,-0.244 1.873,-0.733 0.488,-0.488 0.734,-1.113 0.734,-1.873 v -5.215 c 0,-0.76 -0.246,-1.385 -0.734,-1.874 z M 93.742,21.753 c 0.38,-0.489 0.842,-0.788 1.385,-0.896 h 25.827 c 0.543,0.109 1.005,0.408 1.385,0.896 l 3.911,9.532 h -36.5 l 3.992,-9.532 z m 50.758,97.198 c 0,1.195 -0.189,2.295 -0.57,3.299 -0.381,1.005 -0.775,1.738 -1.182,2.2 -0.407,0.462 -0.691,0.692 -0.855,0.692 H 74.107 c -0.163,0 -0.447,-0.23 -0.855,-0.692 -0.408,-0.462 -0.802,-1.195 -1.182,-2.2 -0.38,-1.004 -0.57,-2.105 -0.57,-3.299 V 41.714 h 73 v 77.237 z"/><path id="path7" d="m 84.536,109.5 h 5.214 c 0.761,0 1.386,-0.244 1.874,-0.732 0.488,-0.49 0.733,-1.113 0.733,-1.875 V 59.964 c 0,-0.76 -0.245,-1.385 -0.733,-1.874 -0.489,-0.488 -1.113,-0.732 -1.874,-0.732 h -5.214 c -0.761,0 -1.385,0.244 -1.874,0.732 -0.488,0.489 -0.733,1.114 -0.733,1.874 v 46.929 c 0,0.762 0.244,1.385 0.733,1.875 0.489,0.488 1.113,0.732 1.874,0.732 z"/><path id="path9" d="m 105.393,109.5 h 5.214 c 0.761,0 1.386,-0.244 1.873,-0.732 0.49,-0.49 0.733,-1.113 0.733,-1.875 V 59.964 c 0,-0.76 -0.243,-1.385 -0.733,-1.874 -0.487,-0.488 -1.112,-0.732 -1.873,-0.732 h -5.214 c -0.76,0 -1.385,0.244 -1.874,0.732 -0.489,0.489 -0.733,1.114 -0.733,1.874 v 46.929 c 0,0.762 0.244,1.385 0.733,1.875 0.489,0.488 1.114,0.732 1.874,0.732 z"/><path id="path11" d="m 126.25,109.5 h 5.214 c 0.761,0 1.386,-0.244 1.874,-0.732 0.488,-0.49 0.732,-1.113 0.732,-1.875 V 59.964 c 0,-0.76 -0.244,-1.385 -0.732,-1.874 -0.488,-0.488 -1.113,-0.732 -1.874,-0.732 h -5.214 c -0.761,0 -1.385,0.244 -1.874,0.732 -0.489,0.489 -0.733,1.114 -0.733,1.874 v 46.929 c 0,0.762 0.244,1.385 0.733,1.875 0.489,0.488 1.113,0.732 1.874,0.732 z"/></g></g></svg>